<svg width="22" height="22" viewBox="0 0 22 22" fill="none" xmlns="http://www.w3.org/2000/svg">
<path d="M8.25033 19.25C9.26285 19.25 10.0837 18.4292 10.0837 17.4167C10.0837 16.4042 9.26285 15.5833 8.25033 15.5833C7.2378 15.5833 6.41699 16.4042 6.41699 17.4167C6.41699 18.4292 7.2378 19.25 8.25033 19.25Z" stroke="#121212" stroke-width="1.4" stroke-linecap="round" stroke-linejoin="round"/>
<path d="M15.5833 19.25C16.5959 19.25 17.4167 18.4292 17.4167 17.4167C17.4167 16.4042 16.5959 15.5833 15.5833 15.5833C14.5708 15.5833 13.75 16.4042 13.75 17.4167C13.75 18.4292 14.5708 19.25 15.5833 19.25Z" stroke="#121212" stroke-width="1.4" stroke-linecap="round" stroke-linejoin="round"/>
<path d="M2.75 2.75H4.58333L6.41667 13.75C6.61441 14.3124 6.98953 14.7952 7.48552 15.1259C7.98151 15.4565 8.57152 15.6171 9.16667 15.5833H15.5833C16.1785 15.6171 16.7685 15.4565 17.2645 15.1259C17.7605 14.7952 18.1356 14.3124 18.3333 13.75L19.25 7.33333H5.31667" stroke="#121212" stroke-width="1.4" stroke-linecap="round" stroke-linejoin="round"/>
</svg>
