<svg width="22" height="22" viewBox="0 0 22 22" fill="none" xmlns="http://www.w3.org/2000/svg">
<path d="M2.75 2.75L19.25 19.25" stroke="#6D6D6D" stroke-width="1.4" stroke-linecap="round" stroke-linejoin="round"/>
<path d="M9.70197 9.70459C9.35796 10.0484 9.1646 10.5147 9.16443 11.001C9.16426 11.4874 9.35729 11.9538 9.70105 12.2978C10.0448 12.6418 10.5112 12.8352 10.9975 12.8354C11.4838 12.8356 11.9503 12.6425 12.2943 12.2988" stroke="#6D6D6D" stroke-width="1.4" stroke-linecap="round" stroke-linejoin="round"/>
<path d="M15.9106 15.9035C14.4155 16.9118 12.7802 17.4169 11 17.4169C7.33334 17.4169 4.27809 15.2783 1.83334 11.0002C3.08826 8.8048 4.50359 7.17313 6.07934 6.1043M8.58276 4.91813C9.36873 4.6933 10.1825 4.58065 11 4.58355C14.6667 4.58355 17.7219 6.72213 20.1667 11.0002C19.4535 12.2478 18.689 13.3139 17.8723 14.1975L8.58276 4.91813Z" stroke="#6D6D6D" stroke-width="1.4" stroke-linecap="round" stroke-linejoin="round"/>
</svg>
